<svg width="599" height="263" fill="none" xmlns="http://www.w3.org/2000/svg"><circle r="1.5" transform="matrix(-1 0 0 1 593.5 5.5)" fill="#EDEDED"/><circle r="1.5" transform="matrix(-1 0 0 1 565.5 5.5)" fill="#EDEDED"/><circle r="1.5" transform="matrix(-1 0 0 1 537.5 5.5)" fill="#EDEDED"/><circle r="1.5" transform="matrix(-1 0 0 1 509.5 5.5)" fill="#EDEDED"/><circle r="1.5" transform="matrix(-1 0 0 1 481.5 5.5)" fill="#EDEDED"/><circle r="1.5" transform="matrix(-1 0 0 1 453.5 5.5)" fill="#EDEDED"/><circle r="1.5" transform="matrix(-1 0 0 1 425.5 5.5)" fill="#EDEDED"/><circle r="1.5" transform="matrix(-1 0 0 1 397.5 5.5)" fill="#EDEDED"/><circle r="1.5" transform="matrix(-1 0 0 1 369.5 5.5)" fill="#EDEDED"/><circle r="1.5" transform="matrix(-1 0 0 1 341.5 5.5)" fill="#EDEDED"/><circle r="1.5" transform="matrix(-1 0 0 1 313.5 5.5)" fill="#EDEDED"/><circle r="1.5" transform="matrix(-1 0 0 1 285.5 5.5)" fill="#EDEDED"/><circle r="1.5" transform="matrix(-1 0 0 1 257.5 5.5)" fill="#EDEDED"/><circle r="1.5" transform="matrix(-1 0 0 1 229.5 5.5)" fill="#EDEDED"/><circle r="1.5" transform="matrix(-1 0 0 1 201.5 5.5)" fill="#EDEDED"/><circle r="1.5" transform="matrix(-1 0 0 1 173.5 5.5)" fill="#EDEDED"/><circle r="1.5" transform="matrix(-1 0 0 1 145.5 5.5)" fill="#EDEDED"/><circle r="1.5" transform="matrix(-1 0 0 1 117.5 5.5)" fill="#EDEDED"/><circle r="1.5" transform="matrix(-1 0 0 1 89.5 5.5)" fill="#EDEDED"/><circle r="1.5" transform="matrix(-1 0 0 1 61.5 5.5)" fill="#EDEDED"/><circle r="1.5" transform="matrix(-1 0 0 1 33.5 5.5)" fill="#EDEDED"/><circle r="1.5" transform="matrix(-1 0 0 1 5.5 5.5)" fill="#EDEDED"/><circle r="1.5" transform="matrix(-1 0 0 1 593.5 33.5)" fill="#EDEDED"/><circle r="1.5" transform="matrix(-1 0 0 1 565.5 33.5)" fill="#EDEDED"/><circle r="1.5" transform="matrix(-1 0 0 1 537.5 33.5)" fill="#EDEDED"/><circle r="1.5" transform="matrix(-1 0 0 1 509.5 33.5)" fill="#EDEDED"/><circle r="1.5" transform="matrix(-1 0 0 1 481.5 33.5)" fill="#EDEDED"/><circle r="1.5" transform="matrix(-1 0 0 1 453.5 33.5)" fill="#EDEDED"/><circle r="1.5" transform="matrix(-1 0 0 1 425.5 33.5)" fill="#EDEDED"/><circle r="1.5" transform="matrix(-1 0 0 1 397.5 33.5)" fill="#EDEDED"/><circle r="1.5" transform="matrix(-1 0 0 1 369.5 33.5)" fill="#EDEDED"/><circle r="1.5" transform="matrix(-1 0 0 1 341.5 33.5)" fill="#EDEDED"/><circle r="1.5" transform="matrix(-1 0 0 1 313.5 33.5)" fill="#EDEDED"/><circle r="1.5" transform="matrix(-1 0 0 1 285.5 33.5)" fill="#EDEDED"/><circle r="1.5" transform="matrix(-1 0 0 1 257.5 33.5)" fill="#EDEDED"/><circle r="1.5" transform="matrix(-1 0 0 1 229.5 33.5)" fill="#EDEDED"/><circle r="1.5" transform="matrix(-1 0 0 1 201.5 33.5)" fill="#EDEDED"/><circle r="1.5" transform="matrix(-1 0 0 1 173.5 33.5)" fill="#EDEDED"/><circle r="1.5" transform="matrix(-1 0 0 1 145.5 33.5)" fill="#EDEDED"/><circle r="1.5" transform="matrix(-1 0 0 1 117.5 33.5)" fill="#EDEDED"/><circle r="1.5" transform="matrix(-1 0 0 1 89.5 33.5)" fill="#EDEDED"/><circle r="1.5" transform="matrix(-1 0 0 1 61.5 33.5)" fill="#EDEDED"/><circle r="1.5" transform="matrix(-1 0 0 1 33.5 33.5)" fill="#EDEDED"/><circle r="1.5" transform="matrix(-1 0 0 1 5.5 33.5)" fill="#EDEDED"/><circle r="1.5" transform="matrix(-1 0 0 1 593.5 61.5)" fill="#EDEDED"/><circle r="1.5" transform="matrix(-1 0 0 1 565.5 61.5)" fill="#EDEDED"/><circle r="1.5" transform="matrix(-1 0 0 1 537.5 61.5)" fill="#EDEDED"/><circle r="1.5" transform="matrix(-1 0 0 1 509.5 61.5)" fill="#EDEDED"/><circle r="1.5" transform="matrix(-1 0 0 1 481.5 61.5)" fill="#EDEDED"/><circle r="1.5" transform="matrix(-1 0 0 1 453.5 61.5)" fill="#EDEDED"/><circle r="1.5" transform="matrix(-1 0 0 1 425.5 61.5)" fill="#EDEDED"/><circle r="1.5" transform="matrix(-1 0 0 1 397.5 61.5)" fill="#EDEDED"/><circle r="1.5" transform="matrix(-1 0 0 1 369.5 61.5)" fill="#EDEDED"/><circle r="1.5" transform="matrix(-1 0 0 1 341.5 61.5)" fill="#EDEDED"/><circle r="1.5" transform="matrix(-1 0 0 1 313.5 61.5)" fill="#EDEDED"/><circle r="1.5" transform="matrix(-1 0 0 1 285.5 61.5)" fill="#EDEDED"/><circle r="1.5" transform="matrix(-1 0 0 1 257.5 61.5)" fill="#EDEDED"/><circle r="1.5" transform="matrix(-1 0 0 1 229.5 61.5)" fill="#EDEDED"/><circle r="1.5" transform="matrix(-1 0 0 1 201.5 61.5)" fill="#EDEDED"/><circle r="1.5" transform="matrix(-1 0 0 1 173.5 61.5)" fill="#EDEDED"/><circle r="1.5" transform="matrix(-1 0 0 1 145.5 61.5)" fill="#EDEDED"/><circle r="1.5" transform="matrix(-1 0 0 1 117.5 61.5)" fill="#EDEDED"/><circle r="1.5" transform="matrix(-1 0 0 1 89.5 61.5)" fill="#EDEDED"/><circle r="1.5" transform="matrix(-1 0 0 1 61.5 61.5)" fill="#EDEDED"/><circle r="1.5" transform="matrix(-1 0 0 1 33.5 61.5)" fill="#EDEDED"/><circle r="1.5" transform="matrix(-1 0 0 1 5.5 61.5)" fill="#EDEDED"/><circle r="1.5" transform="matrix(-1 0 0 1 593.5 89.5)" fill="#EDEDED"/><circle r="1.5" transform="matrix(-1 0 0 1 565.5 89.5)" fill="#EDEDED"/><circle r="1.5" transform="matrix(-1 0 0 1 537.5 89.5)" fill="#EDEDED"/><circle r="1.5" transform="matrix(-1 0 0 1 509.5 89.5)" fill="#EDEDED"/><circle r="1.5" transform="matrix(-1 0 0 1 481.5 89.5)" fill="#EDEDED"/><circle r="1.5" transform="matrix(-1 0 0 1 453.5 89.5)" fill="#EDEDED"/><circle r="1.5" transform="matrix(-1 0 0 1 425.5 89.5)" fill="#EDEDED"/><circle r="1.5" transform="matrix(-1 0 0 1 397.5 89.5)" fill="#EDEDED"/><circle r="1.5" transform="matrix(-1 0 0 1 369.5 89.5)" fill="#EDEDED"/><circle r="1.5" transform="matrix(-1 0 0 1 341.5 89.5)" fill="#EDEDED"/><circle r="1.5" transform="matrix(-1 0 0 1 313.5 89.5)" fill="#EDEDED"/><circle r="1.5" transform="matrix(-1 0 0 1 285.5 89.5)" fill="#EDEDED"/><circle r="1.5" transform="matrix(-1 0 0 1 257.5 89.5)" fill="#EDEDED"/><circle r="1.5" transform="matrix(-1 0 0 1 229.5 89.5)" fill="#EDEDED"/><circle r="1.5" transform="matrix(-1 0 0 1 201.5 89.5)" fill="#EDEDED"/><circle r="1.5" transform="matrix(-1 0 0 1 173.5 89.5)" fill="#EDEDED"/><circle r="1.5" transform="matrix(-1 0 0 1 145.5 89.5)" fill="#EDEDED"/><circle r="1.5" transform="matrix(-1 0 0 1 117.5 89.5)" fill="#EDEDED"/><circle r="1.5" transform="matrix(-1 0 0 1 89.5 89.5)" fill="#EDEDED"/><circle r="1.5" transform="matrix(-1 0 0 1 61.5 89.5)" fill="#EDEDED"/><circle r="1.5" transform="matrix(-1 0 0 1 33.5 89.5)" fill="#EDEDED"/><circle r="1.5" transform="matrix(-1 0 0 1 5.5 89.5)" fill="#EDEDED"/><circle r="1.5" transform="matrix(-1 0 0 1 593.5 117.5)" fill="#EDEDED"/><circle r="1.5" transform="matrix(-1 0 0 1 565.5 117.5)" fill="#EDEDED"/><circle r="1.5" transform="matrix(-1 0 0 1 537.5 117.5)" fill="#EDEDED"/><circle r="1.5" transform="matrix(-1 0 0 1 509.5 117.5)" fill="#EDEDED"/><circle r="1.5" transform="matrix(-1 0 0 1 481.5 117.5)" fill="#EDEDED"/><circle r="1.5" transform="matrix(-1 0 0 1 453.5 117.5)" fill="#EDEDED"/><circle r="1.5" transform="matrix(-1 0 0 1 425.5 117.5)" fill="#EDEDED"/><circle r="1.5" transform="matrix(-1 0 0 1 397.5 117.5)" fill="#EDEDED"/><circle r="1.5" transform="matrix(-1 0 0 1 369.5 117.5)" fill="#EDEDED"/><circle r="1.5" transform="matrix(-1 0 0 1 341.5 117.5)" fill="#EDEDED"/><circle r="1.5" transform="matrix(-1 0 0 1 313.5 117.5)" fill="#EDEDED"/><circle r="1.5" transform="matrix(-1 0 0 1 285.5 117.5)" fill="#EDEDED"/><circle r="1.5" transform="matrix(-1 0 0 1 257.5 117.5)" fill="#EDEDED"/><circle r="1.5" transform="matrix(-1 0 0 1 229.5 117.5)" fill="#EDEDED"/><circle r="1.5" transform="matrix(-1 0 0 1 201.5 117.5)" fill="#EDEDED"/><circle r="1.5" transform="matrix(-1 0 0 1 173.5 117.5)" fill="#EDEDED"/><circle r="1.5" transform="matrix(-1 0 0 1 145.5 117.5)" fill="#EDEDED"/><circle r="1.5" transform="matrix(-1 0 0 1 117.5 117.5)" fill="#EDEDED"/><circle r="1.5" transform="matrix(-1 0 0 1 89.5 117.5)" fill="#EDEDED"/><circle r="1.5" transform="matrix(-1 0 0 1 61.5 117.5)" fill="#EDEDED"/><circle r="1.5" transform="matrix(-1 0 0 1 33.5 117.5)" fill="#EDEDED"/><circle r="1.5" transform="matrix(-1 0 0 1 5.5 117.5)" fill="#EDEDED"/><circle r="1.5" transform="matrix(-1 0 0 1 593.5 145.5)" fill="#EDEDED"/><circle r="1.5" transform="matrix(-1 0 0 1 565.5 145.5)" fill="#EDEDED"/><circle r="1.5" transform="matrix(-1 0 0 1 537.5 145.5)" fill="#EDEDED"/><circle r="1.5" transform="matrix(-1 0 0 1 509.5 145.5)" fill="#EDEDED"/><circle r="1.5" transform="matrix(-1 0 0 1 481.5 145.5)" fill="#EDEDED"/><circle r="1.5" transform="matrix(-1 0 0 1 453.5 145.5)" fill="#EDEDED"/><circle r="1.5" transform="matrix(-1 0 0 1 425.5 145.5)" fill="#EDEDED"/><circle r="1.5" transform="matrix(-1 0 0 1 397.5 145.5)" fill="#EDEDED"/><circle r="1.5" transform="matrix(-1 0 0 1 369.5 145.5)" fill="#EDEDED"/><circle r="1.5" transform="matrix(-1 0 0 1 341.5 145.5)" fill="#EDEDED"/><circle r="1.5" transform="matrix(-1 0 0 1 313.5 145.5)" fill="#EDEDED"/><circle r="1.5" transform="matrix(-1 0 0 1 285.5 145.5)" fill="#EDEDED"/><circle r="1.5" transform="matrix(-1 0 0 1 257.5 145.5)" fill="#EDEDED"/><circle r="1.5" transform="matrix(-1 0 0 1 229.5 145.5)" fill="#EDEDED"/><circle r="1.5" transform="matrix(-1 0 0 1 201.5 145.5)" fill="#EDEDED"/><circle r="1.5" transform="matrix(-1 0 0 1 173.5 145.5)" fill="#EDEDED"/><circle r="1.5" transform="matrix(-1 0 0 1 145.5 145.5)" fill="#EDEDED"/><circle r="1.5" transform="matrix(-1 0 0 1 117.5 145.5)" fill="#EDEDED"/><circle r="1.5" transform="matrix(-1 0 0 1 89.5 145.5)" fill="#EDEDED"/><circle r="1.5" transform="matrix(-1 0 0 1 61.5 145.5)" fill="#EDEDED"/><circle r="1.5" transform="matrix(-1 0 0 1 33.5 145.5)" fill="#EDEDED"/><circle r="1.5" transform="matrix(-1 0 0 1 5.5 145.5)" fill="#EDEDED"/><circle r="1.5" transform="matrix(-1 0 0 1 593.5 173.5)" fill="#EDEDED"/><circle r="1.5" transform="matrix(-1 0 0 1 565.5 173.5)" fill="#EDEDED"/><circle r="1.5" transform="matrix(-1 0 0 1 537.5 173.5)" fill="#EDEDED"/><circle r="1.5" transform="matrix(-1 0 0 1 509.5 173.5)" fill="#EDEDED"/><circle r="1.5" transform="matrix(-1 0 0 1 481.5 173.5)" fill="#EDEDED"/><circle r="1.5" transform="matrix(-1 0 0 1 453.5 173.5)" fill="#EDEDED"/><circle r="1.5" transform="matrix(-1 0 0 1 425.5 173.5)" fill="#EDEDED"/><circle r="1.5" transform="matrix(-1 0 0 1 397.5 173.5)" fill="#EDEDED"/><circle r="1.5" transform="matrix(-1 0 0 1 369.5 173.5)" fill="#EDEDED"/><circle r="1.5" transform="matrix(-1 0 0 1 341.5 173.5)" fill="#EDEDED"/><circle r="1.5" transform="matrix(-1 0 0 1 313.5 173.5)" fill="#EDEDED"/><circle r="1.5" transform="matrix(-1 0 0 1 285.5 173.5)" fill="#EDEDED"/><circle r="1.5" transform="matrix(-1 0 0 1 257.5 173.5)" fill="#EDEDED"/><circle r="1.5" transform="matrix(-1 0 0 1 229.5 173.5)" fill="#EDEDED"/><circle r="1.5" transform="matrix(-1 0 0 1 201.5 173.5)" fill="#EDEDED"/><circle r="1.5" transform="matrix(-1 0 0 1 173.5 173.5)" fill="#EDEDED"/><circle r="1.5" transform="matrix(-1 0 0 1 145.5 173.5)" fill="#EDEDED"/><circle r="1.5" transform="matrix(-1 0 0 1 117.5 173.5)" fill="#EDEDED"/><circle r="1.5" transform="matrix(-1 0 0 1 89.5 173.5)" fill="#EDEDED"/><circle r="1.5" transform="matrix(-1 0 0 1 61.5 173.5)" fill="#EDEDED"/><circle r="1.5" transform="matrix(-1 0 0 1 33.5 173.5)" fill="#EDEDED"/><circle r="1.5" transform="matrix(-1 0 0 1 5.5 173.5)" fill="#EDEDED"/><circle r="1.5" transform="matrix(-1 0 0 1 593.5 201.5)" fill="#EDEDED"/><circle r="1.5" transform="matrix(-1 0 0 1 565.5 201.5)" fill="#EDEDED"/><circle r="1.5" transform="matrix(-1 0 0 1 537.5 201.5)" fill="#EDEDED"/><circle r="1.5" transform="matrix(-1 0 0 1 509.5 201.5)" fill="#EDEDED"/><circle r="1.5" transform="matrix(-1 0 0 1 481.5 201.5)" fill="#EDEDED"/><circle r="1.5" transform="matrix(-1 0 0 1 453.5 201.5)" fill="#EDEDED"/><circle r="1.5" transform="matrix(-1 0 0 1 425.5 201.5)" fill="#EDEDED"/><circle r="1.5" transform="matrix(-1 0 0 1 397.5 201.5)" fill="#EDEDED"/><circle r="1.5" transform="matrix(-1 0 0 1 369.5 201.5)" fill="#EDEDED"/><circle r="1.5" transform="matrix(-1 0 0 1 341.5 201.5)" fill="#EDEDED"/><circle r="1.5" transform="matrix(-1 0 0 1 313.5 201.5)" fill="#EDEDED"/><circle r="1.5" transform="matrix(-1 0 0 1 285.5 201.5)" fill="#EDEDED"/><circle r="1.5" transform="matrix(-1 0 0 1 257.5 201.5)" fill="#EDEDED"/><circle r="1.5" transform="matrix(-1 0 0 1 229.5 201.5)" fill="#EDEDED"/><circle r="1.5" transform="matrix(-1 0 0 1 201.5 201.5)" fill="#EDEDED"/><circle r="1.5" transform="matrix(-1 0 0 1 173.5 201.5)" fill="#EDEDED"/><circle r="1.5" transform="matrix(-1 0 0 1 145.5 201.5)" fill="#EDEDED"/><circle r="1.5" transform="matrix(-1 0 0 1 117.5 201.5)" fill="#EDEDED"/><circle r="1.5" transform="matrix(-1 0 0 1 89.5 201.5)" fill="#EDEDED"/><circle r="1.5" transform="matrix(-1 0 0 1 61.5 201.5)" fill="#EDEDED"/><circle r="1.5" transform="matrix(-1 0 0 1 33.5 201.5)" fill="#EDEDED"/><circle r="1.5" transform="matrix(-1 0 0 1 5.5 201.5)" fill="#EDEDED"/><circle r="1.5" transform="matrix(-1 0 0 1 593.5 229.5)" fill="#EDEDED"/><circle r="1.5" transform="matrix(-1 0 0 1 565.5 229.5)" fill="#EDEDED"/><circle r="1.5" transform="matrix(-1 0 0 1 537.5 229.5)" fill="#EDEDED"/><circle r="1.5" transform="matrix(-1 0 0 1 509.5 229.5)" fill="#EDEDED"/><circle r="1.5" transform="matrix(-1 0 0 1 481.5 229.5)" fill="#EDEDED"/><circle r="1.5" transform="matrix(-1 0 0 1 453.5 229.5)" fill="#EDEDED"/><circle r="1.5" transform="matrix(-1 0 0 1 425.5 229.5)" fill="#EDEDED"/><circle r="1.5" transform="matrix(-1 0 0 1 397.5 229.5)" fill="#EDEDED"/><circle r="1.5" transform="matrix(-1 0 0 1 369.5 229.5)" fill="#EDEDED"/><circle r="1.5" transform="matrix(-1 0 0 1 341.5 229.5)" fill="#EDEDED"/><circle r="1.5" transform="matrix(-1 0 0 1 313.5 229.5)" fill="#EDEDED"/><circle r="1.5" transform="matrix(-1 0 0 1 285.5 229.5)" fill="#EDEDED"/><circle r="1.5" transform="matrix(-1 0 0 1 257.5 229.5)" fill="#EDEDED"/><circle r="1.5" transform="matrix(-1 0 0 1 229.5 229.5)" fill="#EDEDED"/><circle r="1.5" transform="matrix(-1 0 0 1 201.5 229.5)" fill="#EDEDED"/><circle r="1.5" transform="matrix(-1 0 0 1 173.5 229.5)" fill="#EDEDED"/><circle r="1.5" transform="matrix(-1 0 0 1 145.5 229.5)" fill="#EDEDED"/><circle r="1.5" transform="matrix(-1 0 0 1 117.5 229.5)" fill="#EDEDED"/><circle r="1.5" transform="matrix(-1 0 0 1 89.5 229.5)" fill="#EDEDED"/><circle r="1.5" transform="matrix(-1 0 0 1 61.5 229.5)" fill="#EDEDED"/><circle r="1.5" transform="matrix(-1 0 0 1 33.5 229.5)" fill="#EDEDED"/><circle r="1.5" transform="matrix(-1 0 0 1 5.5 229.5)" fill="#EDEDED"/><circle r="1.5" transform="matrix(-1 0 0 1 593.5 257.5)" fill="#EDEDED"/><circle r="1.5" transform="matrix(-1 0 0 1 565.5 257.5)" fill="#EDEDED"/><circle r="1.5" transform="matrix(-1 0 0 1 537.5 257.5)" fill="#EDEDED"/><circle r="1.5" transform="matrix(-1 0 0 1 509.5 257.5)" fill="#EDEDED"/><circle r="1.5" transform="matrix(-1 0 0 1 481.5 257.5)" fill="#EDEDED"/><circle r="1.5" transform="matrix(-1 0 0 1 453.5 257.5)" fill="#EDEDED"/><circle r="1.5" transform="matrix(-1 0 0 1 425.5 257.5)" fill="#EDEDED"/><circle r="1.5" transform="matrix(-1 0 0 1 397.5 257.5)" fill="#EDEDED"/><circle r="1.5" transform="matrix(-1 0 0 1 369.5 257.5)" fill="#EDEDED"/><circle r="1.5" transform="matrix(-1 0 0 1 341.5 257.5)" fill="#EDEDED"/><circle r="1.5" transform="matrix(-1 0 0 1 313.5 257.5)" fill="#EDEDED"/><circle r="1.5" transform="matrix(-1 0 0 1 285.5 257.5)" fill="#EDEDED"/><circle r="1.5" transform="matrix(-1 0 0 1 257.5 257.5)" fill="#EDEDED"/><circle r="1.5" transform="matrix(-1 0 0 1 229.5 257.5)" fill="#EDEDED"/><circle r="1.5" transform="matrix(-1 0 0 1 201.5 257.5)" fill="#EDEDED"/><circle r="1.5" transform="matrix(-1 0 0 1 173.5 257.5)" fill="#EDEDED"/><circle r="1.5" transform="matrix(-1 0 0 1 145.5 257.5)" fill="#EDEDED"/><circle r="1.5" transform="matrix(-1 0 0 1 117.5 257.5)" fill="#EDEDED"/><circle r="1.5" transform="matrix(-1 0 0 1 89.5 257.5)" fill="#EDEDED"/><circle r="1.5" transform="matrix(-1 0 0 1 61.5 257.5)" fill="#EDEDED"/><circle r="1.5" transform="matrix(-1 0 0 1 33.5 257.5)" fill="#EDEDED"/><circle r="1.5" transform="matrix(-1 0 0 1 5.5 257.5)" fill="#EDEDED"/><path d="M204.56 165.96c-4.1 0-7.73-.7-10.88-2.08a17.88 17.88 0 01-7.44-6.08c-1.81-2.67-2.75-5.9-2.8-9.68h10.8a9.78 9.78 0 002.8 6.64c1.81 1.76 4.3 2.64 7.44 2.64 2.72 0 4.88-.64 6.48-1.92a6.53 6.53 0 002.4-5.28c0-2.3-.72-4.08-2.16-5.36a15.54 15.54 0 00-5.6-3.12l-7.52-2.56c-4.32-1.5-7.63-3.41-9.92-5.76-2.24-2.35-3.36-5.47-3.36-9.36-.05-3.3.72-6.13 2.32-8.48 1.65-2.4 3.9-4.24 6.72-5.52 2.83-1.33 6.08-2 9.76-2 3.73 0 7.01.67 9.84 2a15.86 15.86 0 016.72 5.6 15.64 15.64 0 012.64 8.56h-10.96a7.44 7.44 0 00-2.32-5.2c-1.44-1.55-3.47-2.32-6.08-2.32a8.77 8.77 0 00-5.68 1.68c-1.5 1.12-2.24 2.77-2.24 4.96a5.9 5.9 0 001.76 4.48 14.55 14.55 0 004.8 2.72c2.03.75 4.35 1.55 6.96 2.4 2.77.96 5.3 2.08 7.6 3.36a15.45 15.45 0 015.52 5.12c1.39 2.08 2.08 4.77 2.08 8.08 0 2.93-.75 5.65-2.24 8.16-1.5 2.5-3.7 4.53-6.64 6.08-2.93 1.5-6.53 2.24-10.8 2.24zM250.61 165c-4.16 0-7.49-1.01-10-3.04-2.5-2.03-3.76-5.63-3.76-10.8v-17.28h-6.8v-8.56h6.8l1.2-10.64h9.04v10.64h10.72v8.56H247.1v17.36c0 1.92.4 3.25 1.2 4 .86.7 2.3 1.04 4.32 1.04h4.96V165h-6.96zM266.6 165v-39.68h9.13l.96 7.44a16.4 16.4 0 015.84-6.08 16.42 16.42 0 018.8-2.32v10.8h-2.88c-2.24 0-4.24.35-6 1.04a8.27 8.27 0 00-4.16 3.6c-.96 1.7-1.44 4.08-1.44 7.12V165H266.6zM312 165.96c-3.4 0-6.2-.53-8.4-1.6a11.6 11.6 0 01-4.88-4.4 11.61 11.61 0 01-1.6-6c0-3.68 1.44-6.67 4.32-8.96 2.88-2.3 7.2-3.44 12.96-3.44h10.09v-.96c0-2.72-.78-4.72-2.32-6a8.73 8.73 0 00-5.77-1.92c-2.07 0-3.89.5-5.44 1.52a6.23 6.23 0 00-2.88 4.32h-10a14.13 14.13 0 012.88-7.52c1.71-2.13 3.9-3.76 6.56-4.88a22.03 22.03 0 018.97-1.76c5.65 0 10.1 1.41 13.36 4.24 3.25 2.83 4.88 6.83 4.88 12V165H326l-.95-6.4a14.68 14.68 0 01-4.97 5.28c-2.07 1.39-4.77 2.08-8.07 2.08zm2.32-8c2.94 0 5.2-.96 6.8-2.88 1.66-1.92 2.7-4.3 3.13-7.12h-8.73c-2.71 0-4.66.5-5.83 1.52a4.47 4.47 0 00-1.76 3.6 4.2 4.2 0 001.75 3.6 7.71 7.71 0 004.64 1.28zM361.63 165c-4.16 0-7.5-1.01-10-3.04-2.5-2.03-3.76-5.63-3.76-10.8v-17.28h-6.8v-8.56h6.8l1.2-10.64h9.04v10.64h10.72v8.56h-10.72v17.36c0 1.92.4 3.25 1.2 4 .85.7 2.3 1.04 4.32 1.04h4.96V165h-6.96zM395.89 165.96c-4 0-7.55-.85-10.64-2.56-3.1-1.7-5.52-4.1-7.28-7.2a21.3 21.3 0 01-2.64-10.72c0-4.1.85-7.76 2.56-10.96a18.96 18.96 0 017.2-7.44 21.13 21.13 0 0110.88-2.72c3.89 0 7.33.85 10.32 2.56 2.98 1.7 5.3 4.05 6.96 7.04a19.2 19.2 0 012.56 9.84c0 .59-.03 1.2-.08 1.84 0 .64-.03 1.3-.08 2h-30.16c.21 3.1 1.28 5.52 3.2 7.28a10.33 10.33 0 007.12 2.64 9.3 9.3 0 005.2-1.36 8.85 8.85 0 003.2-3.68h10.4c-.75 2.5-2 4.8-3.76 6.88a18.06 18.06 0 01-6.4 4.8 19.97 19.97 0 01-8.56 1.76zm.08-33.28c-2.51 0-4.72.72-6.64 2.16-1.92 1.39-3.15 3.52-3.68 6.4h19.76a8.64 8.64 0 00-2.88-6.24 9.58 9.58 0 00-6.56-2.32zM180 90h239v9H180z" fill="#000"/></svg>